<svg width="180" height="180" viewBox="0 0 180 180" fill="none" xmlns="http://www.w3.org/2000/svg">
<rect width="180" height="180" fill="#EE3643"/>
<path fill-rule="evenodd" clip-rule="evenodd" d="M33.75 33.7256C28.125 33.7503 28.125 39.3753 28.125 39.3753V67.5003C28.125 72.915 33.75 73.1066 33.75 73.1066H49.5868C53.0736 73.1066 52.4717 75.5668 52.4717 75.5668C52.4717 75.5668 48.0226 99.5605 47.5433 103.62C47.0622 107.683 44.1772 110.266 44.1772 110.266C44.1772 110.266 36.8747 112.481 35.3123 113.343C33.75 114.204 33.75 118.126 33.75 118.126H95.625V116.048C95.625 113.343 81.2046 110.266 76.5176 109.774C71.8288 109.283 72.791 106.082 72.791 106.082L74.7138 90.0007H80.1234L82.1123 78.7507H76.7027L77.2991 73.1257H92.8125C103.273 72.0173 112.5 66.5038 112.5 66.5038L112.5 42.1878C104.205 36.159 89.3257 33.7256 89.3257 33.7256H33.75ZM138.495 48.9376H161.203C162.24 48.9376 163.081 50.5824 163.081 53.1127C163.081 55.643 162.24 57.9376 161.203 57.9376H138.495C137.376 62.1554 134.761 67.5001 131.716 67.5001H118.125V39.3751H131.716C134.763 39.3751 137.376 44.7198 138.495 48.9376ZM37.1162 146.25C33.75 146.25 33.75 142.467 33.75 142.467V123.749H95.625V142.591C95.625 145.91 92.0192 146.25 92.0192 146.25L37.1162 146.25ZM90 42.2308V42.1449C90 40.6217 89.2083 39.3754 88.2405 39.3754H35.5096C34.5418 39.3754 33.75 40.6217 33.75 42.1449V42.2308C33.75 43.754 34.5418 45.0004 35.5096 45.0004H88.2405C89.2083 45.0004 90 43.754 90 42.2308Z" fill="white"/>
</svg>
